# xmcd
#
# Track frame offsets:
#	185
#	17150
#	38055
#	60715
#	79248
#	99068
#	115698
#	133340
#	159863
#	181655
#	198460
#	223500
#	239260
#	252653
#	273815
#	294208
#	316293
#	333005
#
# Disc length: 4782 seconds
#
# Revision: 2
# Processed by: cddbd v1.4b42PL0 Copyright (c) Steve Scherf et al.
# Submitted via: EZCDDA 4.3.2
#
DISCID=ee12ac12
DTITLE=George Harrison - Dark Horse and Extra Texture
DYEAR=1900
DGENRE=
TTITLE0=Hari's on tour
TTITLE1=Simply shady
TTITLE2=So sad
TTITLE3=By bye, love
TTITLE4=Maya love
TTITLE5=Ding dong, ding dong
TTITLE6=Dark horse
TTITLE7=Far east man
TTITLE8=It is "he" (Jai Sri Krishna)
TTITLE9=You
TTITLE10=The answer's at the end
TTITLE11=This guitar
TTITLE12=Ooh baby (You know that I Love you)
TTITLE13=World of stone
TTITLE14=Can't stop thinking about you
TTITLE15=Tired of midnight blue
TTITLE16=Grey cloudy lies
TTITLE17=His name is legs
EXTD=
EXTT0=
EXTT1=
EXTT2=
EXTT3=
EXTT4=
EXTT5=
EXTT6=
EXTT7=
EXTT8=
EXTT9=
EXTT10=
EXTT11=
EXTT12=
EXTT13=
EXTT14=
EXTT15=
EXTT16=
EXTT17=
PLAYORDER=
